<svg version="1.1" viewBox="0.0 0.0 960.0 720.0" fill="none" stroke="none" stroke-linecap="square" stroke-miterlimit="10" xmlns:xlink="http://www.w3.org/1999/xlink" xmlns="http://www.w3.org/2000/svg"><clipPath id="p.0"><path d="m0 0l960.0 0l0 720.0l-960.0 0l0 -720.0z" clip-rule="nonzero"/></clipPath><g clip-path="url(#p.0)"><path fill="#000000" fill-opacity="0.0" d="m0 0l960.0 0l0 720.0l-960.0 0z" fill-rule="evenodd"/><defs><linearGradient id="p.1" gradientUnits="userSpaceOnUse" gradientTransform="matrix(17.512060600334394 -14.365309285630948 14.365309285630948 17.512060600334394 0.0 0.0)" spreadMethod="pad" x1="-4.917407411611336" y1="16.660449882705695" x2="-4.917470782509295" y2="34.172510482925425"><stop offset="0.0" stop-color="#bfbfbf"/><stop offset="1.0" stop-color="#737373"/></linearGradient></defs><path fill="url(#p.1)" d="m404.78476 669.07117l-164.76329 -377.87653l76.038895 -62.375427l164.7633 377.87653z" fill-rule="evenodd"/><defs><linearGradient id="p.2" gradientUnits="userSpaceOnUse" gradientTransform="matrix(10.893855292069825 -8.936185736330973 8.936185736330973 10.893855292069825 0.0 0.0)" spreadMethod="pad" x1="0.7728275372613601" y1="13.158667619385126" x2="0.7727881534032685" y2="24.05252291138376"><stop offset="0.0" stop-color="#ffffff"/><stop offset="1.0" stop-color="#b3b3b3"/></linearGradient></defs><path fill="url(#p.2)" d="m223.35689 255.11858l-66.47621 -144.0007l73.37384 -60.188274l66.47623 144.0007z" fill-rule="evenodd"/><defs><linearGradient id="p.3" gradientUnits="userSpaceOnUse" gradientTransform="matrix(-17.512061505586676 -14.365310028420126 -14.365310028420126 17.512061505586676 0.0 0.0)" spreadMethod="pad" x1="-35.71548498713891" y1="-8.603508778112783" x2="-35.715550168630585" y2="8.908552727352586"><stop offset="0.0" stop-color="#bfbfbf"/><stop offset="1.0" stop-color="#737373"/></linearGradient></defs><path fill="url(#p.3)" d="m497.4777 669.07117l164.76328 -377.87653l-76.03888 -62.375427l-164.7633 377.87653z" fill-rule="evenodd"/><defs><linearGradient id="p.4" gradientUnits="userSpaceOnUse" gradientTransform="matrix(-10.893856019761545 -8.936186333057192 -8.936186333057192 10.893856019761545 0.0 0.0)" spreadMethod="pad" x1="-48.76737536911639" y1="-27.47896257177223" x2="-48.767413206723475" y2="-16.585106552076393"><stop offset="0.0" stop-color="#ffffff"/><stop offset="1.0" stop-color="#b3b3b3"/></linearGradient></defs><path fill="url(#p.4)" d="m679.47235 255.11858l66.47626 -144.0007l-73.3739 -60.188274l-66.4762 144.0007z" fill-rule="evenodd"/><defs><linearGradient id="p.5" gradientUnits="userSpaceOnUse" gradientTransform="matrix(17.418436160228328 0.0 0.0 17.418436160228328 0.0 0.0)" spreadMethod="pad" x1="23.19185692384204" y1="2.3180961207742383" x2="23.191795708647053" y2="19.736532280895"><stop offset="0.0" stop-color="#ffffff"/><stop offset="1.0" stop-color="#b3b3b3"/></linearGradient></defs><path fill="url(#p.5)" d="m403.96588 40.377953l94.897644 0l0 303.40158l-94.897644 0z" fill-rule="evenodd"/><defs><linearGradient id="p.6" gradientUnits="userSpaceOnUse" gradientTransform="matrix(17.418435718776806 0.0 0.0 17.418435718776806 0.0 0.0)" spreadMethod="pad" x1="23.191857511614714" y1="20.992612107685133" x2="23.19179394198754" y2="38.41104782634594"><stop offset="0.0" stop-color="#bfbfbf"/><stop offset="1.0" stop-color="#737373"/></linearGradient></defs><path fill="url(#p.6)" d="m403.96588 365.65878l94.897644 0l0 303.40158l-94.897644 0z" fill-rule="evenodd"/></g></svg>